<svg version="1.1" xmlns="http://www.w3.org/2000/svg" xmlns:xlink="http://www.w3.org/1999/xlink" width="328.32106" height="42" viewBox="0,0,328.32106,42"><g transform="translate(-155.83948,-159)"><g data-paper-data="{&quot;isPaintingLayer&quot;:true}" fill-rule="nonzero" stroke-linecap="butt" stroke-linejoin="miter" stroke-miterlimit="10" stroke-dasharray="" stroke-dashoffset="0" style="mix-blend-mode: normal"><path d="M207.26842,199.28341v-38.97969h275.64212v38.97969z" fill="#ffffff" stroke="#009cff" stroke-width="2.5"/><path d="M216.92711,188.0004c0,-5.58692 0,-13.65845 0,-16.7134c0,-2.34281 2.82683,-5.20581 4.93182,-5.20581c1.99221,0 6.28289,0 9.86365,0c3.15193,0 5.75379,3.76253 5.75379,6.57576c0,2.95943 0,9.71966 0,14.79546c0,3.56676 -3.2521,6.30177 -6.84975,6.30177c-3.10565,0 -6.46879,0 -8.2197,0c-2.27894,0 -5.4798,-2.43979 -5.4798,-5.75379z" fill="#009cff" stroke="none" stroke-width="0"/><text transform="translate(222.11851,185.77292) scale(0.43263,0.43263)" font-size="40" xml:space="preserve" fill="#fbfdff" fill-rule="nonzero" stroke="none" stroke-width="1" stroke-linecap="butt" stroke-linejoin="miter" stroke-miterlimit="10" stroke-dasharray="" stroke-dashoffset="0" font-family="Sans Serif" font-weight="normal" text-anchor="start" style="mix-blend-mode: normal"><tspan x="0" dy="0">1</tspan></text><path d="M157.08948,199.75v-39.5h39.5v39.5z" fill="#ffffff" stroke="#009cff" stroke-width="2.5"/><path d="M167.42281,179.18056v-1.16667l8.60606,-9.5l10.06061,9.83333v1.5l-10.06061,-9.66667z" fill="#ffffff" stroke="#000000" stroke-width="2.5"/><path d="M175.42281,193.34723v-23h1.16667v23z" fill="#ffffff" stroke="#000000" stroke-width="2.5"/><text transform="translate(248.54536,183.6725) scale(0.44608,0.44608)" font-size="40" xml:space="preserve" fill="#000000" fill-rule="nonzero" stroke="#000000" stroke-width="1" stroke-linecap="butt" stroke-linejoin="miter" stroke-miterlimit="10" stroke-dasharray="" stroke-dashoffset="0" font-family="Sans Serif" font-weight="normal" text-anchor="start" style="mix-blend-mode: normal"><tspan x="0" dy="0">河湖山站 </tspan></text><path d="M330.6194,174.83909l0.5606,-0.00581l4.01408,4.34528l-4.0814,4.62602l-0.72078,0.00746l4.00812,-4.38502z" fill="#ffffff" stroke="#000000" stroke-width="1.5"/><path d="M322.29105,179.13095l11.05188,-0.11441l0.00581,0.5606l-11.05188,0.11441z" fill="#ffffff" stroke="#000000" stroke-width="1.5"/><text transform="translate(265.19877,193.7785) scale(0.15686,0.15686)" font-size="40" xml:space="preserve" fill="#000000" fill-rule="nonzero" stroke="none" stroke-width="1" stroke-linecap="butt" stroke-linejoin="miter" stroke-miterlimit="10" stroke-dasharray="" stroke-dashoffset="0" font-family="Sans Serif" font-weight="normal" text-anchor="start" style="mix-blend-mode: normal"><tspan x="0" dy="0">This Station</tspan></text><text transform="translate(337.76632,182.00117) scale(0.38754,0.38754)" font-size="40" xml:space="preserve" fill="#000000" fill-rule="nonzero" stroke="#000000" stroke-width="1" stroke-linecap="butt" stroke-linejoin="miter" stroke-miterlimit="10" stroke-dasharray="" stroke-dashoffset="0" font-family="Sans Serif" font-weight="normal" text-anchor="start" style="mix-blend-mode: normal"><tspan x="0" dy="0">大湖风景区</tspan></text><text transform="translate(359.00442,191.25485) scale(0.15687,0.15687)" font-size="40" xml:space="preserve" fill="#000000" fill-rule="nonzero" stroke="none" stroke-width="1" stroke-linecap="butt" stroke-linejoin="miter" stroke-miterlimit="10" stroke-dasharray="" stroke-dashoffset="0" font-family="Sans Serif" font-weight="normal" text-anchor="start" style="mix-blend-mode: normal"><tspan x="0" dy="0">Next Station</tspan></text><text transform="translate(456.50086,185.27293) scale(0.43263,0.43263)" font-size="40" xml:space="preserve" fill="#fbfdff" fill-rule="nonzero" stroke="none" stroke-width="1" stroke-linecap="butt" stroke-linejoin="miter" stroke-miterlimit="10" stroke-dasharray="" stroke-dashoffset="0" font-family="Sans Serif" font-weight="normal" text-anchor="start" style="mix-blend-mode: normal"><tspan x="0" dy="0">2</tspan></text></g></g></svg>